<mxfile host="app.diagrams.net" modified="2024-04-03T08:45:09.770Z" agent="Mozilla/5.0 (X11; Linux x86_64) AppleWebKit/537.36 (KHTML, like Gecko) Chrome/121.0.0.0 Safari/537.36 Edg/121.0.0.0" etag="JN_I_DzI_bYH3cWCch9R" version="24.2.1" type="device">
  <diagram name="Page-1" id="VBhBgLYZ8UtNvQvZxtnj">
    <mxGraphModel dx="5454" dy="2552" grid="1" gridSize="10" guides="1" tooltips="1" connect="1" arrows="1" fold="1" page="1" pageScale="1" pageWidth="850" pageHeight="1100" math="0" shadow="0">
      <root>
        <mxCell id="0" />
        <mxCell id="1" parent="0" />
        <mxCell id="knR7DKbNkxC3ffFZfM3c-89" value="" style="group" vertex="1" connectable="0" parent="1">
          <mxGeometry x="-185" y="270" width="1220" height="590" as="geometry" />
        </mxCell>
        <mxCell id="knR7DKbNkxC3ffFZfM3c-1" value="User" style="rounded=0;whiteSpace=wrap;html=1;" vertex="1" parent="knR7DKbNkxC3ffFZfM3c-89">
          <mxGeometry x="130" y="160" width="100" height="40" as="geometry" />
        </mxCell>
        <mxCell id="knR7DKbNkxC3ffFZfM3c-2" value="userid" style="ellipse;whiteSpace=wrap;html=1;" vertex="1" parent="knR7DKbNkxC3ffFZfM3c-89">
          <mxGeometry x="210" y="10" width="100" height="40" as="geometry" />
        </mxCell>
        <mxCell id="knR7DKbNkxC3ffFZfM3c-4" value="name" style="ellipse;whiteSpace=wrap;html=1;" vertex="1" parent="knR7DKbNkxC3ffFZfM3c-89">
          <mxGeometry y="90" width="100" height="40" as="geometry" />
        </mxCell>
        <mxCell id="knR7DKbNkxC3ffFZfM3c-5" value="email" style="ellipse;whiteSpace=wrap;html=1;" vertex="1" parent="knR7DKbNkxC3ffFZfM3c-89">
          <mxGeometry x="270" y="90" width="100" height="40" as="geometry" />
        </mxCell>
        <mxCell id="knR7DKbNkxC3ffFZfM3c-6" value="password" style="ellipse;whiteSpace=wrap;html=1;" vertex="1" parent="knR7DKbNkxC3ffFZfM3c-89">
          <mxGeometry x="60" y="10" width="100" height="40" as="geometry" />
        </mxCell>
        <mxCell id="knR7DKbNkxC3ffFZfM3c-11" value="" style="endArrow=classic;html=1;rounded=0;exitX=0.5;exitY=0;exitDx=0;exitDy=0;entryX=0;entryY=0.5;entryDx=0;entryDy=0;" edge="1" parent="knR7DKbNkxC3ffFZfM3c-89" source="knR7DKbNkxC3ffFZfM3c-1" target="knR7DKbNkxC3ffFZfM3c-5">
          <mxGeometry width="50" height="50" relative="1" as="geometry">
            <mxPoint x="210" y="150" as="sourcePoint" />
            <mxPoint x="260" y="100" as="targetPoint" />
          </mxGeometry>
        </mxCell>
        <mxCell id="knR7DKbNkxC3ffFZfM3c-12" value="" style="endArrow=classic;html=1;rounded=0;entryX=0.5;entryY=1;entryDx=0;entryDy=0;exitX=0.5;exitY=0;exitDx=0;exitDy=0;" edge="1" parent="knR7DKbNkxC3ffFZfM3c-89" source="knR7DKbNkxC3ffFZfM3c-1" target="knR7DKbNkxC3ffFZfM3c-2">
          <mxGeometry width="50" height="50" relative="1" as="geometry">
            <mxPoint x="210" y="210" as="sourcePoint" />
            <mxPoint x="260" y="160" as="targetPoint" />
          </mxGeometry>
        </mxCell>
        <mxCell id="knR7DKbNkxC3ffFZfM3c-13" value="" style="endArrow=classic;html=1;rounded=0;exitX=0.5;exitY=0;exitDx=0;exitDy=0;entryX=0.552;entryY=1.029;entryDx=0;entryDy=0;entryPerimeter=0;" edge="1" parent="knR7DKbNkxC3ffFZfM3c-89" source="knR7DKbNkxC3ffFZfM3c-1" target="knR7DKbNkxC3ffFZfM3c-6">
          <mxGeometry width="50" height="50" relative="1" as="geometry">
            <mxPoint x="210" y="210" as="sourcePoint" />
            <mxPoint x="260" y="160" as="targetPoint" />
          </mxGeometry>
        </mxCell>
        <mxCell id="knR7DKbNkxC3ffFZfM3c-14" value="" style="endArrow=classic;html=1;rounded=0;exitX=0.5;exitY=0;exitDx=0;exitDy=0;entryX=1;entryY=0.5;entryDx=0;entryDy=0;" edge="1" parent="knR7DKbNkxC3ffFZfM3c-89" source="knR7DKbNkxC3ffFZfM3c-1" target="knR7DKbNkxC3ffFZfM3c-4">
          <mxGeometry width="50" height="50" relative="1" as="geometry">
            <mxPoint x="210" y="210" as="sourcePoint" />
            <mxPoint x="260" y="160" as="targetPoint" />
          </mxGeometry>
        </mxCell>
        <mxCell id="knR7DKbNkxC3ffFZfM3c-33" value="uploads" style="html=1;whiteSpace=wrap;aspect=fixed;shape=isoRectangle;" vertex="1" parent="knR7DKbNkxC3ffFZfM3c-89">
          <mxGeometry x="430" y="150" width="100" height="60" as="geometry" />
        </mxCell>
        <mxCell id="knR7DKbNkxC3ffFZfM3c-38" value="" style="html=1;verticalAlign=bottom;labelBackgroundColor=none;endArrow=oval;endFill=0;endSize=8;rounded=0;exitX=1;exitY=0.5;exitDx=0;exitDy=0;" edge="1" parent="knR7DKbNkxC3ffFZfM3c-89" source="knR7DKbNkxC3ffFZfM3c-1">
          <mxGeometry width="160" relative="1" as="geometry">
            <mxPoint x="430" y="340" as="sourcePoint" />
            <mxPoint x="430" y="180" as="targetPoint" />
          </mxGeometry>
        </mxCell>
        <mxCell id="knR7DKbNkxC3ffFZfM3c-40" value="" style="html=1;verticalAlign=bottom;labelBackgroundColor=none;endArrow=oval;endFill=0;endSize=8;rounded=0;exitX=0;exitY=0.5;exitDx=0;exitDy=0;spacingRight=260;" edge="1" parent="knR7DKbNkxC3ffFZfM3c-89" source="knR7DKbNkxC3ffFZfM3c-16">
          <mxGeometry width="160" relative="1" as="geometry">
            <mxPoint x="430" y="340" as="sourcePoint" />
            <mxPoint x="530" y="180" as="targetPoint" />
          </mxGeometry>
        </mxCell>
        <mxCell id="knR7DKbNkxC3ffFZfM3c-31" value="" style="group" vertex="1" connectable="0" parent="knR7DKbNkxC3ffFZfM3c-89">
          <mxGeometry x="565" width="430" height="200" as="geometry" />
        </mxCell>
        <mxCell id="knR7DKbNkxC3ffFZfM3c-16" value="Files" style="rounded=0;whiteSpace=wrap;html=1;" vertex="1" parent="knR7DKbNkxC3ffFZfM3c-31">
          <mxGeometry x="150" y="160" width="100" height="40" as="geometry" />
        </mxCell>
        <mxCell id="knR7DKbNkxC3ffFZfM3c-19" value="fileid" style="ellipse;whiteSpace=wrap;html=1;" vertex="1" parent="knR7DKbNkxC3ffFZfM3c-31">
          <mxGeometry x="-35" y="90" width="100" height="40" as="geometry" />
        </mxCell>
        <mxCell id="knR7DKbNkxC3ffFZfM3c-20" value="userid" style="ellipse;whiteSpace=wrap;html=1;" vertex="1" parent="knR7DKbNkxC3ffFZfM3c-31">
          <mxGeometry x="25" y="10" width="100" height="40" as="geometry" />
        </mxCell>
        <mxCell id="knR7DKbNkxC3ffFZfM3c-22" value="file_path" style="ellipse;whiteSpace=wrap;html=1;" vertex="1" parent="knR7DKbNkxC3ffFZfM3c-31">
          <mxGeometry x="285" y="10" width="100" height="40" as="geometry" />
        </mxCell>
        <mxCell id="knR7DKbNkxC3ffFZfM3c-23" value="upload_date" style="ellipse;whiteSpace=wrap;html=1;" vertex="1" parent="knR7DKbNkxC3ffFZfM3c-31">
          <mxGeometry x="345" y="90" width="100" height="40" as="geometry" />
        </mxCell>
        <mxCell id="knR7DKbNkxC3ffFZfM3c-24" value="" style="endArrow=classic;html=1;rounded=0;entryX=0;entryY=0.5;entryDx=0;entryDy=0;" edge="1" parent="knR7DKbNkxC3ffFZfM3c-31" target="knR7DKbNkxC3ffFZfM3c-23">
          <mxGeometry width="50" height="50" relative="1" as="geometry">
            <mxPoint x="200" y="160" as="sourcePoint" />
            <mxPoint x="200" y="170" as="targetPoint" />
          </mxGeometry>
        </mxCell>
        <mxCell id="knR7DKbNkxC3ffFZfM3c-25" value="" style="endArrow=classic;html=1;rounded=0;entryX=0.5;entryY=1;entryDx=0;entryDy=0;" edge="1" parent="knR7DKbNkxC3ffFZfM3c-31" target="knR7DKbNkxC3ffFZfM3c-22">
          <mxGeometry width="50" height="50" relative="1" as="geometry">
            <mxPoint x="200" y="160" as="sourcePoint" />
            <mxPoint x="200" y="170" as="targetPoint" />
          </mxGeometry>
        </mxCell>
        <mxCell id="knR7DKbNkxC3ffFZfM3c-27" value="" style="endArrow=classic;html=1;rounded=0;entryX=0.5;entryY=1;entryDx=0;entryDy=0;exitX=0.5;exitY=0;exitDx=0;exitDy=0;" edge="1" parent="knR7DKbNkxC3ffFZfM3c-31" source="knR7DKbNkxC3ffFZfM3c-16" target="knR7DKbNkxC3ffFZfM3c-20">
          <mxGeometry width="50" height="50" relative="1" as="geometry">
            <mxPoint x="150" y="220" as="sourcePoint" />
            <mxPoint x="200" y="170" as="targetPoint" />
          </mxGeometry>
        </mxCell>
        <mxCell id="knR7DKbNkxC3ffFZfM3c-28" value="" style="endArrow=classic;html=1;rounded=0;entryX=1;entryY=0.5;entryDx=0;entryDy=0;" edge="1" parent="knR7DKbNkxC3ffFZfM3c-31" target="knR7DKbNkxC3ffFZfM3c-19">
          <mxGeometry width="50" height="50" relative="1" as="geometry">
            <mxPoint x="200" y="160" as="sourcePoint" />
            <mxPoint x="100" y="100" as="targetPoint" />
          </mxGeometry>
        </mxCell>
        <mxCell id="knR7DKbNkxC3ffFZfM3c-21" value="file_name" style="ellipse;whiteSpace=wrap;html=1;" vertex="1" parent="knR7DKbNkxC3ffFZfM3c-31">
          <mxGeometry x="150" y="-20" width="100" height="40" as="geometry" />
        </mxCell>
        <mxCell id="knR7DKbNkxC3ffFZfM3c-26" value="" style="endArrow=classic;html=1;rounded=0;entryX=0.5;entryY=1;entryDx=0;entryDy=0;exitX=0.5;exitY=0;exitDx=0;exitDy=0;" edge="1" parent="knR7DKbNkxC3ffFZfM3c-31" source="knR7DKbNkxC3ffFZfM3c-16" target="knR7DKbNkxC3ffFZfM3c-21">
          <mxGeometry width="50" height="50" relative="1" as="geometry">
            <mxPoint x="155" y="220" as="sourcePoint" />
            <mxPoint x="205" y="170" as="targetPoint" />
          </mxGeometry>
        </mxCell>
        <mxCell id="knR7DKbNkxC3ffFZfM3c-78" value="M" style="text;html=1;align=center;verticalAlign=middle;whiteSpace=wrap;rounded=0;" vertex="1" parent="knR7DKbNkxC3ffFZfM3c-31">
          <mxGeometry x="105" y="160" width="60" height="30" as="geometry" />
        </mxCell>
        <mxCell id="knR7DKbNkxC3ffFZfM3c-74" style="edgeStyle=orthogonalEdgeStyle;rounded=0;orthogonalLoop=1;jettySize=auto;html=1;entryX=0.5;entryY=0;entryDx=0;entryDy=0;" edge="1" parent="knR7DKbNkxC3ffFZfM3c-89" source="knR7DKbNkxC3ffFZfM3c-49" target="knR7DKbNkxC3ffFZfM3c-42">
          <mxGeometry relative="1" as="geometry" />
        </mxCell>
        <mxCell id="knR7DKbNkxC3ffFZfM3c-75" style="edgeStyle=orthogonalEdgeStyle;rounded=0;orthogonalLoop=1;jettySize=auto;html=1;entryX=0.5;entryY=0;entryDx=0;entryDy=0;" edge="1" parent="knR7DKbNkxC3ffFZfM3c-89" source="knR7DKbNkxC3ffFZfM3c-49" target="knR7DKbNkxC3ffFZfM3c-63">
          <mxGeometry relative="1" as="geometry" />
        </mxCell>
        <mxCell id="knR7DKbNkxC3ffFZfM3c-49" value="has" style="html=1;whiteSpace=wrap;aspect=fixed;shape=isoRectangle;" vertex="1" parent="knR7DKbNkxC3ffFZfM3c-89">
          <mxGeometry x="710" y="270" width="100" height="60" as="geometry" />
        </mxCell>
        <mxCell id="knR7DKbNkxC3ffFZfM3c-50" value="" style="html=1;verticalAlign=bottom;labelBackgroundColor=none;endArrow=oval;endFill=0;endSize=8;rounded=0;exitX=0.75;exitY=0;exitDx=0;exitDy=0;spacingRight=260;" edge="1" parent="knR7DKbNkxC3ffFZfM3c-89" source="knR7DKbNkxC3ffFZfM3c-80">
          <mxGeometry width="160" relative="1" as="geometry">
            <mxPoint x="710" y="250" as="sourcePoint" />
            <mxPoint x="760" y="270" as="targetPoint" />
          </mxGeometry>
        </mxCell>
        <mxCell id="knR7DKbNkxC3ffFZfM3c-83" value="1" style="edgeLabel;html=1;align=center;verticalAlign=middle;resizable=1;points=[];movable=1;rotatable=1;deletable=1;editable=1;locked=0;connectable=1;" vertex="1" connectable="0" parent="knR7DKbNkxC3ffFZfM3c-50">
          <mxGeometry x="-0.483" relative="1" as="geometry">
            <mxPoint x="-340" y="132" as="offset" />
          </mxGeometry>
        </mxCell>
        <mxCell id="knR7DKbNkxC3ffFZfM3c-77" value="1" style="text;html=1;align=center;verticalAlign=middle;whiteSpace=wrap;rounded=0;" vertex="1" parent="knR7DKbNkxC3ffFZfM3c-89">
          <mxGeometry x="210" y="160" width="60" height="30" as="geometry" />
        </mxCell>
        <mxCell id="knR7DKbNkxC3ffFZfM3c-80" value="1" style="text;html=1;align=center;verticalAlign=middle;whiteSpace=wrap;rounded=0;" vertex="1" parent="knR7DKbNkxC3ffFZfM3c-89">
          <mxGeometry x="715" y="200" width="60" height="30" as="geometry" />
        </mxCell>
        <mxCell id="knR7DKbNkxC3ffFZfM3c-82" value="" style="html=1;verticalAlign=bottom;labelBackgroundColor=none;endArrow=oval;endFill=0;endSize=8;rounded=0;exitX=0.459;exitY=1.013;exitDx=0;exitDy=0;spacingRight=260;exitPerimeter=0;" edge="1" parent="knR7DKbNkxC3ffFZfM3c-89" source="knR7DKbNkxC3ffFZfM3c-16" target="knR7DKbNkxC3ffFZfM3c-80">
          <mxGeometry width="160" relative="1" as="geometry">
            <mxPoint x="961" y="511" as="sourcePoint" />
            <mxPoint x="960" y="580" as="targetPoint" />
          </mxGeometry>
        </mxCell>
        <mxCell id="knR7DKbNkxC3ffFZfM3c-88" value="" style="group" vertex="1" connectable="0" parent="knR7DKbNkxC3ffFZfM3c-89">
          <mxGeometry x="810" y="340" width="410" height="250" as="geometry" />
        </mxCell>
        <mxCell id="knR7DKbNkxC3ffFZfM3c-79" value="1" style="text;html=1;align=center;verticalAlign=middle;whiteSpace=wrap;rounded=0;container=0;" vertex="1" parent="knR7DKbNkxC3ffFZfM3c-88">
          <mxGeometry x="210" width="20" height="30" as="geometry" />
        </mxCell>
        <mxCell id="knR7DKbNkxC3ffFZfM3c-60" style="edgeStyle=orthogonalEdgeStyle;rounded=0;orthogonalLoop=1;jettySize=auto;html=1;entryX=0.5;entryY=0;entryDx=0;entryDy=0;" edge="1" parent="knR7DKbNkxC3ffFZfM3c-88" source="knR7DKbNkxC3ffFZfM3c-61" target="knR7DKbNkxC3ffFZfM3c-65">
          <mxGeometry relative="1" as="geometry" />
        </mxCell>
        <mxCell id="knR7DKbNkxC3ffFZfM3c-61" value="Decrypted Files" style="whiteSpace=wrap;html=1;align=center;container=0;" vertex="1" parent="knR7DKbNkxC3ffFZfM3c-88">
          <mxGeometry x="155" y="120" width="100" height="40" as="geometry" />
        </mxCell>
        <mxCell id="knR7DKbNkxC3ffFZfM3c-62" value="file_name" style="ellipse;whiteSpace=wrap;html=1;align=center;container=0;" vertex="1" parent="knR7DKbNkxC3ffFZfM3c-88">
          <mxGeometry y="70" width="100" height="40" as="geometry" />
        </mxCell>
        <mxCell id="knR7DKbNkxC3ffFZfM3c-63" value="fileid" style="ellipse;whiteSpace=wrap;html=1;align=center;container=0;" vertex="1" parent="knR7DKbNkxC3ffFZfM3c-88">
          <mxGeometry x="155" y="30" width="100" height="40" as="geometry" />
        </mxCell>
        <mxCell id="knR7DKbNkxC3ffFZfM3c-64" value="userid" style="ellipse;whiteSpace=wrap;html=1;align=center;fontStyle=4;container=0;" vertex="1" parent="knR7DKbNkxC3ffFZfM3c-88">
          <mxGeometry x="300" y="180" width="100" height="40" as="geometry" />
        </mxCell>
        <mxCell id="knR7DKbNkxC3ffFZfM3c-65" value="upload_date" style="ellipse;whiteSpace=wrap;html=1;align=center;container=0;" vertex="1" parent="knR7DKbNkxC3ffFZfM3c-88">
          <mxGeometry x="155" y="210" width="100" height="40" as="geometry" />
        </mxCell>
        <mxCell id="knR7DKbNkxC3ffFZfM3c-66" value="password" style="ellipse;whiteSpace=wrap;html=1;align=center;container=0;" vertex="1" parent="knR7DKbNkxC3ffFZfM3c-88">
          <mxGeometry x="310" y="70" width="100" height="40" as="geometry" />
        </mxCell>
        <mxCell id="knR7DKbNkxC3ffFZfM3c-67" value="file_path" style="ellipse;whiteSpace=wrap;html=1;align=center;container=0;" vertex="1" parent="knR7DKbNkxC3ffFZfM3c-88">
          <mxGeometry y="180" width="100" height="40" as="geometry" />
        </mxCell>
        <mxCell id="knR7DKbNkxC3ffFZfM3c-68" value="" style="endArrow=classic;html=1;rounded=0;entryX=0.5;entryY=1;entryDx=0;entryDy=0;exitX=0.5;exitY=0;exitDx=0;exitDy=0;" edge="1" parent="knR7DKbNkxC3ffFZfM3c-88" source="knR7DKbNkxC3ffFZfM3c-61" target="knR7DKbNkxC3ffFZfM3c-63">
          <mxGeometry width="50" height="50" relative="1" as="geometry">
            <mxPoint x="440" y="-10" as="sourcePoint" />
            <mxPoint x="490" y="-60" as="targetPoint" />
          </mxGeometry>
        </mxCell>
        <mxCell id="knR7DKbNkxC3ffFZfM3c-69" value="" style="endArrow=classic;html=1;rounded=0;entryX=0;entryY=0.5;entryDx=0;entryDy=0;exitX=1;exitY=0;exitDx=0;exitDy=0;" edge="1" parent="knR7DKbNkxC3ffFZfM3c-88" source="knR7DKbNkxC3ffFZfM3c-61" target="knR7DKbNkxC3ffFZfM3c-66">
          <mxGeometry width="50" height="50" relative="1" as="geometry">
            <mxPoint x="260" y="140" as="sourcePoint" />
            <mxPoint x="280" y="100" as="targetPoint" />
          </mxGeometry>
        </mxCell>
        <mxCell id="knR7DKbNkxC3ffFZfM3c-70" value="" style="endArrow=classic;html=1;rounded=0;entryX=0;entryY=0.5;entryDx=0;entryDy=0;exitX=1;exitY=1;exitDx=0;exitDy=0;" edge="1" parent="knR7DKbNkxC3ffFZfM3c-88" source="knR7DKbNkxC3ffFZfM3c-61" target="knR7DKbNkxC3ffFZfM3c-64">
          <mxGeometry width="50" height="50" relative="1" as="geometry">
            <mxPoint x="230" y="150" as="sourcePoint" />
            <mxPoint x="280" y="100" as="targetPoint" />
          </mxGeometry>
        </mxCell>
        <mxCell id="knR7DKbNkxC3ffFZfM3c-71" value="" style="endArrow=classic;html=1;rounded=0;exitX=0;exitY=1;exitDx=0;exitDy=0;entryX=1;entryY=0.5;entryDx=0;entryDy=0;" edge="1" parent="knR7DKbNkxC3ffFZfM3c-88" source="knR7DKbNkxC3ffFZfM3c-61" target="knR7DKbNkxC3ffFZfM3c-67">
          <mxGeometry width="50" height="50" relative="1" as="geometry">
            <mxPoint x="160" y="180" as="sourcePoint" />
            <mxPoint x="210" y="130" as="targetPoint" />
          </mxGeometry>
        </mxCell>
        <mxCell id="knR7DKbNkxC3ffFZfM3c-72" value="" style="endArrow=classic;html=1;rounded=0;entryX=1;entryY=0.5;entryDx=0;entryDy=0;exitX=0;exitY=0;exitDx=0;exitDy=0;" edge="1" parent="knR7DKbNkxC3ffFZfM3c-88" source="knR7DKbNkxC3ffFZfM3c-61" target="knR7DKbNkxC3ffFZfM3c-62">
          <mxGeometry width="50" height="50" relative="1" as="geometry">
            <mxPoint x="150" y="120" as="sourcePoint" />
            <mxPoint x="220" y="280" as="targetPoint" />
          </mxGeometry>
        </mxCell>
        <mxCell id="knR7DKbNkxC3ffFZfM3c-58" value="" style="group;movable=1;resizable=1;rotatable=1;deletable=1;editable=1;locked=0;connectable=1;" vertex="1" connectable="0" parent="knR7DKbNkxC3ffFZfM3c-89">
          <mxGeometry x="290" y="370" width="410" height="220" as="geometry" />
        </mxCell>
        <mxCell id="knR7DKbNkxC3ffFZfM3c-54" style="edgeStyle=orthogonalEdgeStyle;rounded=0;orthogonalLoop=1;jettySize=auto;html=1;entryX=0.5;entryY=0;entryDx=0;entryDy=0;movable=1;resizable=1;rotatable=1;deletable=1;editable=1;locked=0;connectable=1;" edge="1" parent="knR7DKbNkxC3ffFZfM3c-58" source="knR7DKbNkxC3ffFZfM3c-29" target="knR7DKbNkxC3ffFZfM3c-44">
          <mxGeometry relative="1" as="geometry" />
        </mxCell>
        <mxCell id="knR7DKbNkxC3ffFZfM3c-29" value="Encrypted Files" style="whiteSpace=wrap;html=1;align=center;movable=1;resizable=1;rotatable=1;deletable=1;editable=1;locked=0;connectable=1;" vertex="1" parent="knR7DKbNkxC3ffFZfM3c-58">
          <mxGeometry x="155" y="90" width="100" height="40" as="geometry" />
        </mxCell>
        <mxCell id="knR7DKbNkxC3ffFZfM3c-30" value="file_name" style="ellipse;whiteSpace=wrap;html=1;align=center;movable=1;resizable=1;rotatable=1;deletable=1;editable=1;locked=0;connectable=1;" vertex="1" parent="knR7DKbNkxC3ffFZfM3c-58">
          <mxGeometry y="40" width="100" height="40" as="geometry" />
        </mxCell>
        <mxCell id="knR7DKbNkxC3ffFZfM3c-42" value="fileid" style="ellipse;whiteSpace=wrap;html=1;align=center;movable=1;resizable=1;rotatable=1;deletable=1;editable=1;locked=0;connectable=1;" vertex="1" parent="knR7DKbNkxC3ffFZfM3c-58">
          <mxGeometry x="155" width="100" height="40" as="geometry" />
        </mxCell>
        <mxCell id="knR7DKbNkxC3ffFZfM3c-43" value="userid" style="ellipse;whiteSpace=wrap;html=1;align=center;fontStyle=4;movable=1;resizable=1;rotatable=1;deletable=1;editable=1;locked=0;connectable=1;" vertex="1" parent="knR7DKbNkxC3ffFZfM3c-58">
          <mxGeometry x="300" y="150" width="100" height="40" as="geometry" />
        </mxCell>
        <mxCell id="knR7DKbNkxC3ffFZfM3c-44" value="upload_date" style="ellipse;whiteSpace=wrap;html=1;align=center;movable=1;resizable=1;rotatable=1;deletable=1;editable=1;locked=0;connectable=1;" vertex="1" parent="knR7DKbNkxC3ffFZfM3c-58">
          <mxGeometry x="155" y="180" width="100" height="40" as="geometry" />
        </mxCell>
        <mxCell id="knR7DKbNkxC3ffFZfM3c-45" value="password" style="ellipse;whiteSpace=wrap;html=1;align=center;movable=1;resizable=1;rotatable=1;deletable=1;editable=1;locked=0;connectable=1;" vertex="1" parent="knR7DKbNkxC3ffFZfM3c-58">
          <mxGeometry x="310" y="40" width="100" height="40" as="geometry" />
        </mxCell>
        <mxCell id="knR7DKbNkxC3ffFZfM3c-46" value="file_path" style="ellipse;whiteSpace=wrap;html=1;align=center;movable=1;resizable=1;rotatable=1;deletable=1;editable=1;locked=0;connectable=1;" vertex="1" parent="knR7DKbNkxC3ffFZfM3c-58">
          <mxGeometry y="150" width="100" height="40" as="geometry" />
        </mxCell>
        <mxCell id="knR7DKbNkxC3ffFZfM3c-51" value="" style="endArrow=classic;html=1;rounded=0;entryX=0.5;entryY=1;entryDx=0;entryDy=0;exitX=0.5;exitY=0;exitDx=0;exitDy=0;movable=1;resizable=1;rotatable=1;deletable=1;editable=1;locked=0;connectable=1;" edge="1" parent="knR7DKbNkxC3ffFZfM3c-58" source="knR7DKbNkxC3ffFZfM3c-29" target="knR7DKbNkxC3ffFZfM3c-42">
          <mxGeometry width="50" height="50" relative="1" as="geometry">
            <mxPoint x="440" y="-40" as="sourcePoint" />
            <mxPoint x="490" y="-90" as="targetPoint" />
          </mxGeometry>
        </mxCell>
        <mxCell id="knR7DKbNkxC3ffFZfM3c-52" value="" style="endArrow=classic;html=1;rounded=0;entryX=0;entryY=0.5;entryDx=0;entryDy=0;exitX=1;exitY=0;exitDx=0;exitDy=0;movable=1;resizable=1;rotatable=1;deletable=1;editable=1;locked=0;connectable=1;" edge="1" parent="knR7DKbNkxC3ffFZfM3c-58" source="knR7DKbNkxC3ffFZfM3c-29" target="knR7DKbNkxC3ffFZfM3c-45">
          <mxGeometry width="50" height="50" relative="1" as="geometry">
            <mxPoint x="260" y="110" as="sourcePoint" />
            <mxPoint x="280" y="70" as="targetPoint" />
          </mxGeometry>
        </mxCell>
        <mxCell id="knR7DKbNkxC3ffFZfM3c-53" value="" style="endArrow=classic;html=1;rounded=0;entryX=0;entryY=0.5;entryDx=0;entryDy=0;exitX=1;exitY=1;exitDx=0;exitDy=0;movable=1;resizable=1;rotatable=1;deletable=1;editable=1;locked=0;connectable=1;" edge="1" parent="knR7DKbNkxC3ffFZfM3c-58" source="knR7DKbNkxC3ffFZfM3c-29" target="knR7DKbNkxC3ffFZfM3c-43">
          <mxGeometry width="50" height="50" relative="1" as="geometry">
            <mxPoint x="230" y="120" as="sourcePoint" />
            <mxPoint x="280" y="70" as="targetPoint" />
          </mxGeometry>
        </mxCell>
        <mxCell id="knR7DKbNkxC3ffFZfM3c-56" value="" style="endArrow=classic;html=1;rounded=0;exitX=0;exitY=1;exitDx=0;exitDy=0;entryX=1;entryY=0.5;entryDx=0;entryDy=0;movable=1;resizable=1;rotatable=1;deletable=1;editable=1;locked=0;connectable=1;" edge="1" parent="knR7DKbNkxC3ffFZfM3c-58" source="knR7DKbNkxC3ffFZfM3c-29" target="knR7DKbNkxC3ffFZfM3c-46">
          <mxGeometry width="50" height="50" relative="1" as="geometry">
            <mxPoint x="160" y="150" as="sourcePoint" />
            <mxPoint x="210" y="100" as="targetPoint" />
          </mxGeometry>
        </mxCell>
        <mxCell id="knR7DKbNkxC3ffFZfM3c-57" value="" style="endArrow=classic;html=1;rounded=0;entryX=1;entryY=0.5;entryDx=0;entryDy=0;exitX=0;exitY=0;exitDx=0;exitDy=0;movable=1;resizable=1;rotatable=1;deletable=1;editable=1;locked=0;connectable=1;" edge="1" parent="knR7DKbNkxC3ffFZfM3c-58" source="knR7DKbNkxC3ffFZfM3c-29" target="knR7DKbNkxC3ffFZfM3c-30">
          <mxGeometry width="50" height="50" relative="1" as="geometry">
            <mxPoint x="150" y="90" as="sourcePoint" />
            <mxPoint x="220" y="250" as="targetPoint" />
          </mxGeometry>
        </mxCell>
      </root>
    </mxGraphModel>
  </diagram>
</mxfile>
